<?xml version="1.0" encoding="UTF-8"?>
<svg id="Layer_1" xmlns="http://www.w3.org/2000/svg" version="1.1" viewBox="0 0 1059.89 269.35">
  <!-- Generator: Adobe Illustrator 30.5.1, SVG Export Plug-In . SVG Version: 2.1.4 Build 3)  -->
  <defs>
    <style>
      .st0 {
        font-size: 71.41px;
        letter-spacing: .15em;
      }

      .st0, .st1, .st2 {
        isolation: isolate;
      }

      .st0, .st2 {
        fill: #efc6ce;
        font-family: HelveticaNeue, 'Helvetica Neue';
      }

      .st3 {
        fill: #fff8f3;
      }

      .st4 {
        stroke-width: 13.39px;
      }

      .st4, .st5 {
        fill: none;
        stroke: #c86d7c;
        stroke-linecap: round;
        stroke-linejoin: round;
      }

      .st5 {
        stroke-width: 15.07px;
      }

      .st2 {
        font-size: 42.77px;
        letter-spacing: .15em;
      }

      .st6 {
        fill: #c86d7c;
      }
    </style>
  </defs>
  <g>
    <path class="st6" d="M68.63,19.57h41.85c1.88,0,3.61.63,5.01,1.67h15.08v-1.67c0-8.32-6.75-15.07-15.07-15.07h-51.89c-8.32,0-15.07,6.75-15.07,15.07v1.67h15.08c1.4-1.05,3.13-1.67,5.01-1.67Z"/>
    <path class="st6" d="M138.1,21.24h-7.53v4.18c0,8.32-6.75,15.07-15.07,15.07h-51.89c-8.32,0-15.07-6.75-15.07-15.07v-4.18h-7.53C18.36,21.24,0,39.6,0,62.25v97.93c0,22.65,18.36,41.01,41.01,41.01h97.09c22.65,0,41.01-18.36,41.01-41.01V62.25c0-22.65-18.36-41.01-41.01-41.01ZM36.83,179.43c-7.4,0-13.39-6-13.39-13.39s6-13.39,13.39-13.39,13.39,6,13.39,13.39-6,13.39-13.39,13.39ZM84.54,99.92c0,5.55-4.5,10.04-10.04,10.04h-36.83c-5.55,0-10.04-4.5-10.04-10.04v-36.83c0-5.55,4.5-10.04,10.04-10.04h36.83c5.55,0,10.04,4.5,10.04,10.04v36.83ZM94.58,99.92v-36.83c0-5.55,4.5-10.04,10.04-10.04h36.83c5.55,0,10.04,4.5,10.04,10.04v36.83c0,5.55-4.5,10.04-10.04,10.04h-36.83c-5.55,0-10.04-4.5-10.04-10.04ZM142.29,179.43c-7.4,0-13.39-6-13.39-13.39s6-13.39,13.39-13.39,13.39,6,13.39,13.39-6,13.39-13.39,13.39Z"/>
    <path class="st6" d="M63.61,40.49h51.89c8.32,0,15.07-6.75,15.07-15.07v-4.18h-15.08c2.04,1.53,3.36,3.95,3.36,6.7v1.67c0,4.62-3.75,8.37-8.37,8.37h-41.85c-4.62,0-8.37-3.75-8.37-8.37v-1.67c0-2.74,1.33-5.17,3.36-6.7h-15.08v4.18c0,8.32,6.75,15.07,15.07,15.07Z"/>
  </g>
  <g id="rail">
    <path class="st5" d="M41.01,209.56l-32.64,39.34"/>
    <path class="st5" d="M138.1,209.56l32.64,39.34"/>
    <path class="st4" d="M25.95,229.65h127.22"/>
    <path class="st4" d="M10.88,248.9h157.35"/>
  </g>
  <g class="st1">
    <path class="st3" d="M262.1,0c6.26,0,11.52.86,15.78,2.59,4.27,1.73,7.71,3.98,10.32,6.78,2.62,2.8,4.49,5.99,5.63,9.58,1.14,3.59,1.71,7.25,1.71,10.97,0,5.13-.94,9.6-2.82,13.42-1.88,3.82-4.5,6.94-7.85,9.37-3.36,2.42-7.42,4.24-12.2,5.45-4.78,1.21-10.07,1.82-15.87,1.82h-13.14v39.84h-24.57V0h43ZM254.59,45.16c4.89,0,8.84-1.21,11.86-3.63,3.01-2.42,4.52-6.2,4.52-11.32s-1.31-8.85-3.92-11.46c-2.62-2.61-7-3.91-13.14-3.91h-10.24v30.34h10.92Z"/>
    <path class="st3" d="M357.14,0l32.25,99.82h-25.59l-5.63-21.11h-32.42l-5.63,21.11h-25.59L326.77,0h30.37ZM353.9,62.21l-11.77-44.88h-.34l-11.77,44.88h23.89Z"/>
    <path class="st3" d="M400.83,0h24.57v99.82h-24.57V0Z"/>
    <path class="st3" d="M474.74,64.21h-.71c-6.02,0-10.9-4.88-10.9-10.9h0c0-6.02,4.88-10.9,10.9-10.9h.71c6.02,0,10.9,4.88,10.9,10.9h0c0,6.02-4.88,10.9-10.9,10.9Z"/>
    <path class="st6" d="M564.57,0c8.53,0,15.41,1.14,20.65,3.42,5.23,2.29,9.3,5.55,12.2,9.79,2.9,4.24,4.86,9.35,5.89,15.31,1.02,5.97,1.54,12.63,1.54,19.99,0,8.76-.66,16.38-1.96,22.86-1.31,6.48-3.56,11.81-6.74,16.01-3.19,4.19-7.45,7.32-12.8,9.37-5.35,2.05-12.12,3.08-20.31,3.08h-38.73V0h40.27ZM559.79,85c4.32,0,7.79-.61,10.41-1.82,2.62-1.21,4.69-3.22,6.23-6.01,1.54-2.8,2.56-6.48,3.07-11.04.51-4.57.77-10.25.77-17.06,0-5.68-.23-10.67-.68-14.96-.46-4.29-1.4-7.85-2.82-10.69-1.42-2.84-3.53-4.98-6.31-6.43-2.79-1.44-6.51-2.17-11.18-2.17h-10.41v70.18h10.92Z"/>
    <path class="st6" d="M645.79,69.62c0,2.52.2,4.82.6,6.92.4,2.1,1.14,3.91,2.22,5.45,1.08,1.54,2.56,2.75,4.44,3.63,1.88.89,4.24,1.33,7.08,1.33s5.35-.44,7.17-1.33c1.82-.88,3.27-2.1,4.35-3.63,1.08-1.54,1.82-3.36,2.22-5.45.4-2.1.6-4.4.6-6.92V0h24.57v69.62c0,6.34-1.08,11.58-3.24,15.73-2.16,4.15-5.06,7.43-8.7,9.86-3.64,2.42-7.79,4.05-12.46,4.89-4.67.84-9.5,1.26-14.5,1.26s-9.84-.37-14.5-1.12c-4.67-.74-8.82-2.26-12.46-4.54-3.64-2.28-6.54-5.52-8.7-9.72-2.16-4.19-3.24-9.65-3.24-16.36V0h24.57v69.62Z"/>
    <path class="st6" d="M751.93,38.59h.34L769.33,0h26.62l-31.57,60.53v39.29h-24.57v-39.29L708.24,0h27.64l16.04,38.59Z"/>
    <path class="st3" d="M821.8,64.21h-.71c-6.02,0-10.9-4.88-10.9-10.9h0c0-6.02,4.88-10.9,10.9-10.9h.71c6.02,0,10.9,4.88,10.9,10.9h0c0,6.02-4.88,10.9-10.9,10.9Z"/>
    <path class="st3" d="M931.92,68.36h.34V0h22.52v99.82h-27.98l-30.03-69.9h-.34v69.9h-22.52V0h28.32l29.69,68.36Z"/>
    <path class="st3" d="M1027.64,0l32.25,99.82h-25.6l-5.63-21.11h-32.42l-5.63,21.11h-25.6L997.27,0h30.37ZM1024.4,62.21l-11.77-44.88h-.34l-11.77,44.88h23.89Z"/>
  </g>
  <text class="st0" transform="translate(218.17 179.69)"><tspan x="0" y="0">follow time together</tspan></text>
  <text class="st2" transform="translate(218.17 248.77)"><tspan x="0" y="0">Somchai Somphiw</tspan></text>
</svg>
